<?xml version="1.0" encoding="UTF-8"?>
<svg id="Art_4_XS_" data-name="Art 4 (XS)" xmlns="http://www.w3.org/2000/svg" viewBox="0 0 68 68">
  <defs>
    <style>
      .cls-1, .cls-2 {
        fill: #fff;
      }

      .cls-2 {
        font-family: CantoniPro-Regular, 'Cantoni Pro';
        font-size: 38px;
      }
    </style>
  </defs>
  <g id="Background_Circle" data-name="Background Circle">
    <path d="M35.04,61.1c-15.16,0-27.5-12.34-27.5-27.5S19.88,6.1,35.04,6.1s27.5,12.34,27.5,27.5-12.34,27.5-27.5,27.5Z"/>
    <path d="M35.04,10.6c12.68,0,23,10.32,23,23s-10.32,23-23,23-23-10.32-23-23,10.32-23,23-23M35.04,1.6C17.37,1.6,3.04,15.93,3.04,33.6s14.33,32,32,32,32-14.33,32-32S52.72,1.6,35.04,1.6h0Z"/>
  </g>
  <g id="Inner_White_Circle" data-name="Inner White Circle">
    <path class="cls-1" d="M35.04,6.6c14.89,0,27,12.11,27,27s-12.11,27-27,27-27-12.11-27-27S20.16,6.6,35.04,6.6M35.04,3.6c-16.57,0-30,13.43-30,30s13.43,30,30,30,30-13.43,30-30S51.61,3.6,35.04,3.6h0Z"/>
  </g>
  <text class="cls-2" transform="translate(22.41 46.77) scale(1.03 1)"><tspan x="0" y="0">TC</tspan></text>
</svg>